<?xml version="1.0" encoding="UTF-8"?>
<!-- Generated by Pixelmator Pro 3.7.1 -->
<svg width="1024" height="1024" viewBox="0 0 1024 1024" xmlns="http://www.w3.org/2000/svg">
    <g id="Group-copy">
        <linearGradient id="linearGradient1" x1="128" y1="512.195963" x2="896" y2="512.195963"
            gradientUnits="userSpaceOnUse">
            <stop offset="0" stop-color="#007cff" stop-opacity="1" />
            <stop offset="1" stop-color="#00bcff" stop-opacity="1" />
        </linearGradient>
        <path id="Path" fill="none" stroke="url(#linearGradient1)" stroke-width="34.94215"
            d="M 896 512.195923 C 896 593.324341 724.077332 659.091797 512 659.091797 C 299.922638 659.091797 128 593.324341 128 512.195923 C 128 431.067627 299.922638 365.30011 512 365.30011 C 724.077332 365.30011 896 431.067627 896 512.195923 Z" />
        <linearGradient id="linearGradient2" x1="281.786415" y1="512.19597" x2="742.213588" y2="512.19597"
            gradientUnits="userSpaceOnUse">
            <stop offset="0" stop-color="#007cff" stop-opacity="1" />
            <stop offset="1" stop-color="#00bcff" stop-opacity="1" />
        </linearGradient>
        <path id="path1" fill="none" stroke="url(#linearGradient2)" stroke-width="34.94215"
            d="M 704 845.379517 C 633.873596 885.943726 491.063629 769.656128 385.024933 585.643921 C 278.986267 401.631714 249.873596 219.576538 320 179.01239 C 390.126404 138.448181 532.936401 254.73584 638.975037 438.747986 C 745.013733 622.760254 774.126404 804.815369 704 845.379517 Z" />
        <linearGradient id="linearGradient3" x1="512" y1="349" x2="512" y2="675" gradientUnits="userSpaceOnUse">
            <stop offset="0" stop-color="#00d5ff" stop-opacity="1" />
            <stop offset="1" stop-color="#0069fd" stop-opacity="1" />
        </linearGradient>
        <path id="Rounded-Rectangle" fill="url(#linearGradient3)" fill-rule="evenodd" stroke="none"
            d="M 349 603 C 349 642.764526 381.235504 675 421 675 L 603 675 C 642.764526 675 675 642.764526 675 603 L 675 421 C 675 381.235474 642.764526 349 603 349 L 421 349 C 381.235504 349 349 381.235474 349 421 Z" />
        <g id="Curve-1">
            <path id="path2" fill="#000000" stroke="none"
                d="M 529.871033 397.574402 C 540.297363 417.082764 552.103027 436.767212 556.095154 458.523621 C 557.891235 468.311646 558.497803 478.411804 557.827393 488.340637 C 557.270508 496.588989 554.247314 504.473511 552.454285 512.543823 C 508.163086 489.089966 471.695801 451.039307 434.918427 418.104675 C 435.557953 420.295288 435.421417 422.883118 436.827209 424.680542 C 457.598206 451.24823 479.697998 476.753662 501.128662 502.791992 C 484.675018 491.324707 467.752991 480.488586 451.759918 468.387817 C 435.393707 456.005066 420.00473 442.394043 404.123047 429.396301 C 423.261871 453.799072 440.579132 479.746216 461.54361 502.599487 C 478.699188 521.300293 499.223969 536.60437 518.066101 553.60437 C 507.463684 557.352905 497.311005 562.763672 486.260468 564.847778 C 475.238831 566.926392 463.756256 567.320618 452.625763 565.938416 C 439.556732 564.31604 426.618561 560.854126 414.404602 555.929993 C 402.212708 551.015137 391.470245 543.087646 380 536.66687 C 380 537.180176 380 537.19165 380 537.693359 C 403.807404 566.188843 427.271942 591.047974 463.404144 603.839294 C 473.480927 607.406433 483.959045 610.028687 494.552551 611.458069 C 509.602203 613.488525 525.570496 613.343262 540.023865 608.682861 C 555.176514 603.797729 575.48584 590.460266 593.947815 592.916687 C 605.532532 594.45752 613.469543 606.145386 620.49292 613.350464 C 621.884338 612.21875 621.892029 612.221313 623.283508 611.08905 C 623.283508 619.044556 623.283508 619.044556 623.283508 627 C 623.283508 610.656372 625.957581 597.613037 620.973816 582.988281 C 619.01062 577.226929 617.030518 571.434875 614.221436 566.034912 C 611.323608 560.463623 604.730286 556.482056 603.94043 550.252197 C 602.182495 536.387451 608.092102 522.348511 606.923462 508.421753 C 605.904114 496.274536 601.597412 484.569702 597.46051 473.103271 C 594.898865 466.003662 591.033691 459.394104 586.93866 453.054321 C 571.427368 429.038574 553.569885 412.86792 529.871033 397.574402 Z" />
        </g>
        <linearGradient id="linearGradient4" x1="281.786415" y1="512.19597" x2="742.213588" y2="512.19597"
            gradientUnits="userSpaceOnUse">
            <stop offset="0" stop-color="#007cff" stop-opacity="1" />
            <stop offset="1" stop-color="#00bcff" stop-opacity="1" />
        </linearGradient>
        <path id="path3" fill="none" stroke="url(#linearGradient4)" stroke-width="34.94215"
            d="M 320 845.379517 C 249.873596 804.815369 278.986267 622.760254 385.024933 438.747986 C 491.063629 254.73584 633.873596 138.448181 704 179.01239 C 774.126404 219.576538 745.013733 401.631714 638.975037 585.643921 C 532.936401 769.656128 390.126404 885.943726 320 845.379517 Z" />
    </g>
</svg>